<?xml version="1.0" encoding="utf-8"?>
<!-- Generator: Adobe Illustrator 24.3.0, SVG Export Plug-In . SVG Version: 6.00 Build 0)  -->
<svg version="1.1" id="Layer_1" xmlns="http://www.w3.org/2000/svg" xmlns:xlink="http://www.w3.org/1999/xlink" x="0px" y="0px"
	 viewBox="0 0 48 48" style="enable-background:new 0 0 48 48;" xml:space="preserve">
<style type="text/css">
	.st0{fill:#B8EDFF;stroke:#E0D8C4;stroke-miterlimit:10;}
	.st1{fill:#EDB458;}
	.st2{fill:#99D19C;}
</style>
<polygon class="st0" points="24.1,3.3 30.7,16.7 45.5,18.9 34.8,29.3 37.3,44 24.1,37.1 10.9,44 13.4,29.3 2.7,18.9 17.5,16.7 "/>
<path class="st1" d="M29.3,24.2c-2,0-3.7-1.7-3.7-3.7s1.7-3.7,3.7-3.7s3.7,1.7,3.7,3.7C33.1,22.6,31.3,24.2,29.3,24.2z"/>
<path class="st2" d="M19.4,26.2c-1,1-2.1,1.9-3,3.2c-1.2,1.2-2.4,2.4-3.6,3.6l-1.9,10.8c0.1,0,0.1,0,0.2,0l13-6.8l13,6.8
	C31.2,38,25.4,32.1,19.4,26.2z"/>
</svg>
