<?xml version="1.0" encoding="utf-8"?>
<!-- Generator: Adobe Illustrator 24.2.3, SVG Export Plug-In . SVG Version: 6.00 Build 0)  -->
<svg version="1.1" id="Layer_1" xmlns="http://www.w3.org/2000/svg" xmlns:xlink="http://www.w3.org/1999/xlink" x="0px" y="0px"
	 viewBox="0 0 48 48" style="enable-background:new 0 0 48 48;" xml:space="preserve">
<style type="text/css">
	.st0{fill:#6FD2C3;}
	.st1{fill:#52A9CF;}
	.st2{fill:#ED6764;}
	.st3{fill:#AAB5BD;}
	.st4{fill:#FFD160;}
</style>
<path class="st0" d="M34.1,11.4l5.5-5.5l-0.7-0.5C34.8,1.8,29.3,0,23.9,0s-10.7,1.8-15,5.5L8.2,5.9l5.7,5.5
	c2.7-2.3,6.4-3.6,10.2-3.6C27.8,7.7,31.4,9.1,34.1,11.4z"/>
<path class="st1" d="M42.5,8.9l-0.5-0.7l-5.7,5.5C38.7,16.4,40,20,40,23.9c0,8.4-6.4,15.2-14.3,15.9v8h0.9
	C38.9,46.4,48,36.4,48,24.1C47.8,18.4,46,13,42.5,8.9z"/>
<path class="st2" d="M8,23.9c0-3.9,1.4-7.3,3.6-10.2L5.9,8.2L5.2,8.9C1.8,13,0,18.4,0,23.9c0,12.3,9.1,22.5,21.4,23.7h0.9v-8
	C14.1,38.9,8,32.1,8,23.9z"/>
<rect x="15.5" y="14.6" class="st3" width="17.7" height="1.6"/>
<rect x="15.5" y="23" class="st3" width="17.7" height="1.6"/>
<rect x="15.5" y="31.4" class="st3" width="17.7" height="1.6"/>
<path class="st4" d="M20.2,18.7L20.2,18.7c-0.7,0-1.4-0.7-1.4-1.4v-3.6c0-0.7,0.7-1.4,1.4-1.4l0,0c0.7,0,1.4,0.7,1.4,1.4v3.6
	C21.6,18,20.9,18.7,20.2,18.7z"/>
<path class="st4" d="M27.8,27.1L27.8,27.1c-0.7,0-1.4-0.7-1.4-1.4v-3.6c0-0.7,0.7-1.4,1.4-1.4l0,0c0.7,0,1.4,0.7,1.4,1.4v3.6
	C29.1,26.4,28.4,27.1,27.8,27.1z"/>
<path class="st4" d="M22.7,35.5L22.7,35.5c-0.7,0-1.4-0.7-1.4-1.4v-3.6c0-0.7,0.7-1.4,1.4-1.4l0,0c0.7,0,1.4,0.7,1.4,1.4v3.6
	C24.1,35,23.4,35.5,22.7,35.5z"/>
</svg>
